<mxfile host="app.diagrams.net" modified="2024-02-27T07:44:38.715Z" agent="Mozilla/5.0 (Windows NT 10.0; WOW64) AppleWebKit/537.36 (KHTML, like Gecko) Chrome/94.0.4606.71 Safari/537.36" etag="KOFZJnfZ6Oi1BQPmdhou" version="22.1.15" type="github">
  <diagram name="第 1 页" id="AhcroDPNdXlM7h-OtcJX">
    <mxGraphModel dx="1394" dy="783" grid="1" gridSize="10" guides="1" tooltips="1" connect="1" arrows="1" fold="1" page="1" pageScale="1" pageWidth="827" pageHeight="1169" math="0" shadow="0">
      <root>
        <mxCell id="0" />
        <mxCell id="1" parent="0" />
        <mxCell id="VQO5LwTm_g0xGCJBr3M8-67" value="" style="rounded=1;whiteSpace=wrap;html=1;dashed=1;" vertex="1" parent="1">
          <mxGeometry x="153" y="335" width="221" height="85" as="geometry" />
        </mxCell>
        <mxCell id="VQO5LwTm_g0xGCJBr3M8-59" value="" style="rounded=1;whiteSpace=wrap;html=1;" vertex="1" parent="1">
          <mxGeometry x="390" y="753" width="160" height="70" as="geometry" />
        </mxCell>
        <mxCell id="VQO5LwTm_g0xGCJBr3M8-56" value="" style="rounded=1;whiteSpace=wrap;html=1;" vertex="1" parent="1">
          <mxGeometry x="400" y="623" width="120" height="80" as="geometry" />
        </mxCell>
        <mxCell id="VQO5LwTm_g0xGCJBr3M8-54" value="" style="rounded=1;whiteSpace=wrap;html=1;" vertex="1" parent="1">
          <mxGeometry x="405" y="543" width="110" height="60" as="geometry" />
        </mxCell>
        <mxCell id="VQO5LwTm_g0xGCJBr3M8-51" value="" style="rounded=1;whiteSpace=wrap;html=1;" vertex="1" parent="1">
          <mxGeometry x="390" y="341.25" width="120" height="72.5" as="geometry" />
        </mxCell>
        <mxCell id="VQO5LwTm_g0xGCJBr3M8-49" value="" style="rounded=1;whiteSpace=wrap;html=1;" vertex="1" parent="1">
          <mxGeometry x="280" y="215" width="220" height="110" as="geometry" />
        </mxCell>
        <mxCell id="VQO5LwTm_g0xGCJBr3M8-46" value="" style="rounded=1;whiteSpace=wrap;html=1;" vertex="1" parent="1">
          <mxGeometry x="280" y="80" width="220" height="110" as="geometry" />
        </mxCell>
        <mxCell id="VQO5LwTm_g0xGCJBr3M8-20" style="edgeStyle=orthogonalEdgeStyle;rounded=0;orthogonalLoop=1;jettySize=auto;html=1;entryX=0.5;entryY=0;entryDx=0;entryDy=0;" edge="1" parent="1" source="VQO5LwTm_g0xGCJBr3M8-1" target="VQO5LwTm_g0xGCJBr3M8-10">
          <mxGeometry relative="1" as="geometry" />
        </mxCell>
        <mxCell id="VQO5LwTm_g0xGCJBr3M8-1" value="调用程序" style="rounded=0;whiteSpace=wrap;html=1;" vertex="1" parent="1">
          <mxGeometry x="150" y="170" width="120" height="60" as="geometry" />
        </mxCell>
        <mxCell id="VQO5LwTm_g0xGCJBr3M8-2" value="" style="shape=curlyBracket;whiteSpace=wrap;html=1;rounded=1;labelPosition=left;verticalLabelPosition=middle;align=right;verticalAlign=middle;" vertex="1" parent="1">
          <mxGeometry x="290" y="140" width="20" height="120" as="geometry" />
        </mxCell>
        <mxCell id="VQO5LwTm_g0xGCJBr3M8-4" value="模拟设备" style="rounded=0;whiteSpace=wrap;html=1;" vertex="1" parent="1">
          <mxGeometry x="320" y="110" width="120" height="60" as="geometry" />
        </mxCell>
        <mxCell id="VQO5LwTm_g0xGCJBr3M8-5" value="物理设备" style="rounded=0;whiteSpace=wrap;html=1;" vertex="1" parent="1">
          <mxGeometry x="320" y="230" width="120" height="60" as="geometry" />
        </mxCell>
        <mxCell id="VQO5LwTm_g0xGCJBr3M8-6" value="RESTful" style="text;html=1;strokeColor=none;fillColor=none;align=center;verticalAlign=middle;whiteSpace=wrap;rounded=0;" vertex="1" parent="1">
          <mxGeometry x="354" y="185" width="60" height="30" as="geometry" />
        </mxCell>
        <mxCell id="VQO5LwTm_g0xGCJBr3M8-7" value="" style="shape=curlyBracket;whiteSpace=wrap;html=1;rounded=1;flipH=1;labelPosition=right;verticalLabelPosition=middle;align=left;verticalAlign=middle;" vertex="1" parent="1">
          <mxGeometry x="460" y="140" width="20" height="120" as="geometry" />
        </mxCell>
        <mxCell id="VQO5LwTm_g0xGCJBr3M8-8" value="1. 屏蔽具体实现内容，统一采用 接口形式&lt;br&gt;2. 设备调用具体实现由工业网关或者其他代理程序构建" style="text;html=1;strokeColor=none;fillColor=none;align=center;verticalAlign=middle;whiteSpace=wrap;rounded=0;" vertex="1" parent="1">
          <mxGeometry x="500" y="100" width="230" height="130" as="geometry" />
        </mxCell>
        <mxCell id="VQO5LwTm_g0xGCJBr3M8-29" style="edgeStyle=orthogonalEdgeStyle;rounded=0;orthogonalLoop=1;jettySize=auto;html=1;" edge="1" parent="1" source="VQO5LwTm_g0xGCJBr3M8-10" target="VQO5LwTm_g0xGCJBr3M8-12">
          <mxGeometry relative="1" as="geometry" />
        </mxCell>
        <mxCell id="VQO5LwTm_g0xGCJBr3M8-30" style="edgeStyle=orthogonalEdgeStyle;rounded=0;orthogonalLoop=1;jettySize=auto;html=1;" edge="1" parent="1" source="VQO5LwTm_g0xGCJBr3M8-10">
          <mxGeometry relative="1" as="geometry">
            <mxPoint x="210" y="690" as="targetPoint" />
          </mxGeometry>
        </mxCell>
        <mxCell id="VQO5LwTm_g0xGCJBr3M8-10" value="" style="rhombus;whiteSpace=wrap;html=1;" vertex="1" parent="1">
          <mxGeometry x="170" y="337.5" width="80" height="80" as="geometry" />
        </mxCell>
        <mxCell id="VQO5LwTm_g0xGCJBr3M8-11" value="是否暂定" style="text;html=1;strokeColor=none;fillColor=none;align=center;verticalAlign=middle;whiteSpace=wrap;rounded=0;" vertex="1" parent="1">
          <mxGeometry x="180" y="360" width="60" height="30" as="geometry" />
        </mxCell>
        <mxCell id="VQO5LwTm_g0xGCJBr3M8-14" style="edgeStyle=orthogonalEdgeStyle;rounded=0;orthogonalLoop=1;jettySize=auto;html=1;entryX=0;entryY=0.5;entryDx=0;entryDy=0;" edge="1" parent="1" source="VQO5LwTm_g0xGCJBr3M8-12" target="VQO5LwTm_g0xGCJBr3M8-13">
          <mxGeometry relative="1" as="geometry" />
        </mxCell>
        <mxCell id="VQO5LwTm_g0xGCJBr3M8-12" value="通过断言逻辑" style="text;html=1;strokeColor=none;fillColor=none;align=center;verticalAlign=middle;whiteSpace=wrap;rounded=0;" vertex="1" parent="1">
          <mxGeometry x="284" y="365" width="90" height="25" as="geometry" />
        </mxCell>
        <mxCell id="VQO5LwTm_g0xGCJBr3M8-16" style="edgeStyle=orthogonalEdgeStyle;rounded=0;orthogonalLoop=1;jettySize=auto;html=1;" edge="1" parent="1" source="VQO5LwTm_g0xGCJBr3M8-13" target="VQO5LwTm_g0xGCJBr3M8-15">
          <mxGeometry relative="1" as="geometry" />
        </mxCell>
        <mxCell id="VQO5LwTm_g0xGCJBr3M8-13" value="RESTful" style="text;html=1;strokeColor=none;fillColor=none;align=center;verticalAlign=middle;whiteSpace=wrap;rounded=0;" vertex="1" parent="1">
          <mxGeometry x="430" y="362.5" width="60" height="30" as="geometry" />
        </mxCell>
        <mxCell id="VQO5LwTm_g0xGCJBr3M8-15" value="业务程序" style="rounded=0;whiteSpace=wrap;html=1;" vertex="1" parent="1">
          <mxGeometry x="520" y="347.5" width="120" height="60" as="geometry" />
        </mxCell>
        <mxCell id="VQO5LwTm_g0xGCJBr3M8-18" style="edgeStyle=orthogonalEdgeStyle;rounded=0;orthogonalLoop=1;jettySize=auto;html=1;" edge="1" parent="1">
          <mxGeometry relative="1" as="geometry">
            <mxPoint x="354" y="590" as="sourcePoint" />
            <mxPoint x="580" y="473" as="targetPoint" />
          </mxGeometry>
        </mxCell>
        <mxCell id="VQO5LwTm_g0xGCJBr3M8-19" value="每隔 n 秒循环检测" style="text;html=1;strokeColor=none;fillColor=none;align=center;verticalAlign=middle;whiteSpace=wrap;rounded=0;" vertex="1" parent="1">
          <mxGeometry x="400" y="553" width="120" height="30" as="geometry" />
        </mxCell>
        <mxCell id="VQO5LwTm_g0xGCJBr3M8-37" style="edgeStyle=orthogonalEdgeStyle;rounded=0;orthogonalLoop=1;jettySize=auto;html=1;" edge="1" parent="1" target="VQO5LwTm_g0xGCJBr3M8-26">
          <mxGeometry relative="1" as="geometry">
            <mxPoint x="354" y="683" as="sourcePoint" />
          </mxGeometry>
        </mxCell>
        <mxCell id="VQO5LwTm_g0xGCJBr3M8-26" value="结束" style="ellipse;whiteSpace=wrap;html=1;" vertex="1" parent="1">
          <mxGeometry x="640" y="658" width="70" height="50" as="geometry" />
        </mxCell>
        <mxCell id="VQO5LwTm_g0xGCJBr3M8-31" value="" style="shape=curlyBracket;whiteSpace=wrap;html=1;rounded=1;labelPosition=left;verticalLabelPosition=middle;align=right;verticalAlign=middle;" vertex="1" parent="1">
          <mxGeometry x="250" y="570" width="20" height="240" as="geometry" />
        </mxCell>
        <mxCell id="VQO5LwTm_g0xGCJBr3M8-32" value="" style="endArrow=classic;html=1;rounded=0;" edge="1" parent="1" target="VQO5LwTm_g0xGCJBr3M8-31">
          <mxGeometry width="50" height="50" relative="1" as="geometry">
            <mxPoint x="210" y="690" as="sourcePoint" />
            <mxPoint x="440" y="600" as="targetPoint" />
          </mxGeometry>
        </mxCell>
        <mxCell id="VQO5LwTm_g0xGCJBr3M8-43" style="edgeStyle=orthogonalEdgeStyle;rounded=0;orthogonalLoop=1;jettySize=auto;html=1;entryX=0.5;entryY=1;entryDx=0;entryDy=0;" edge="1" parent="1">
          <mxGeometry relative="1" as="geometry">
            <mxPoint x="580" y="473" as="targetPoint" />
            <mxPoint x="354" y="790" as="sourcePoint" />
          </mxGeometry>
        </mxCell>
        <mxCell id="VQO5LwTm_g0xGCJBr3M8-45" style="edgeStyle=orthogonalEdgeStyle;rounded=0;orthogonalLoop=1;jettySize=auto;html=1;entryX=0.5;entryY=0;entryDx=0;entryDy=0;" edge="1" parent="1">
          <mxGeometry relative="1" as="geometry">
            <mxPoint x="319" y="810" as="sourcePoint" />
            <mxPoint x="319" y="893" as="targetPoint" />
          </mxGeometry>
        </mxCell>
        <mxCell id="VQO5LwTm_g0xGCJBr3M8-36" value="通知业务程序执行已暂停" style="text;html=1;strokeColor=none;fillColor=none;align=center;verticalAlign=middle;whiteSpace=wrap;rounded=0;" vertex="1" parent="1">
          <mxGeometry x="400" y="650" width="120" height="30" as="geometry" />
        </mxCell>
        <mxCell id="VQO5LwTm_g0xGCJBr3M8-39" value="通知业务程序执行到哪一步" style="text;html=1;strokeColor=none;fillColor=none;align=center;verticalAlign=middle;whiteSpace=wrap;rounded=0;" vertex="1" parent="1">
          <mxGeometry x="395" y="763" width="150" height="30" as="geometry" />
        </mxCell>
        <mxCell id="VQO5LwTm_g0xGCJBr3M8-63" style="edgeStyle=orthogonalEdgeStyle;rounded=0;orthogonalLoop=1;jettySize=auto;html=1;" edge="1" parent="1" source="VQO5LwTm_g0xGCJBr3M8-41">
          <mxGeometry relative="1" as="geometry">
            <mxPoint x="580" y="410" as="targetPoint" />
          </mxGeometry>
        </mxCell>
        <mxCell id="VQO5LwTm_g0xGCJBr3M8-41" value="MQTT" style="text;html=1;strokeColor=none;fillColor=none;align=center;verticalAlign=middle;whiteSpace=wrap;rounded=0;" vertex="1" parent="1">
          <mxGeometry x="550" y="440" width="60" height="30" as="geometry" />
        </mxCell>
        <mxCell id="VQO5LwTm_g0xGCJBr3M8-47" value="block" style="text;html=1;strokeColor=none;fillColor=none;align=center;verticalAlign=middle;whiteSpace=wrap;rounded=0;" vertex="1" parent="1">
          <mxGeometry x="280" y="80" width="60" height="30" as="geometry" />
        </mxCell>
        <mxCell id="VQO5LwTm_g0xGCJBr3M8-50" value="block" style="text;html=1;strokeColor=none;fillColor=none;align=center;verticalAlign=middle;whiteSpace=wrap;rounded=0;" vertex="1" parent="1">
          <mxGeometry x="270" y="290" width="60" height="30" as="geometry" />
        </mxCell>
        <mxCell id="VQO5LwTm_g0xGCJBr3M8-52" value="block" style="text;html=1;strokeColor=none;fillColor=none;align=center;verticalAlign=middle;whiteSpace=wrap;rounded=0;" vertex="1" parent="1">
          <mxGeometry x="380" y="387.5" width="60" height="30" as="geometry" />
        </mxCell>
        <mxCell id="VQO5LwTm_g0xGCJBr3M8-55" value="block" style="text;html=1;strokeColor=none;fillColor=none;align=center;verticalAlign=middle;whiteSpace=wrap;rounded=0;" vertex="1" parent="1">
          <mxGeometry x="395" y="580" width="60" height="30" as="geometry" />
        </mxCell>
        <mxCell id="VQO5LwTm_g0xGCJBr3M8-57" value="block" style="text;html=1;strokeColor=none;fillColor=none;align=center;verticalAlign=middle;whiteSpace=wrap;rounded=0;" vertex="1" parent="1">
          <mxGeometry x="395" y="678" width="60" height="30" as="geometry" />
        </mxCell>
        <mxCell id="VQO5LwTm_g0xGCJBr3M8-60" value="block" style="text;html=1;strokeColor=none;fillColor=none;align=center;verticalAlign=middle;whiteSpace=wrap;rounded=0;" vertex="1" parent="1">
          <mxGeometry x="390" y="793" width="60" height="30" as="geometry" />
        </mxCell>
        <mxCell id="VQO5LwTm_g0xGCJBr3M8-64" value="暂停" style="ellipse;whiteSpace=wrap;html=1;" vertex="1" parent="1">
          <mxGeometry x="280" y="563" width="66" height="47" as="geometry" />
        </mxCell>
        <mxCell id="VQO5LwTm_g0xGCJBr3M8-65" value="停止" style="ellipse;whiteSpace=wrap;html=1;" vertex="1" parent="1">
          <mxGeometry x="277" y="661" width="66" height="47" as="geometry" />
        </mxCell>
        <mxCell id="VQO5LwTm_g0xGCJBr3M8-66" value="继续" style="ellipse;whiteSpace=wrap;html=1;" vertex="1" parent="1">
          <mxGeometry x="280" y="764.5" width="66" height="47" as="geometry" />
        </mxCell>
        <mxCell id="VQO5LwTm_g0xGCJBr3M8-68" value="block" style="text;html=1;strokeColor=none;fillColor=none;align=center;verticalAlign=middle;whiteSpace=wrap;rounded=0;" vertex="1" parent="1">
          <mxGeometry x="310" y="392.5" width="60" height="30" as="geometry" />
        </mxCell>
        <mxCell id="VQO5LwTm_g0xGCJBr3M8-69" value="是否达到要求" style="rhombus;whiteSpace=wrap;html=1;" vertex="1" parent="1">
          <mxGeometry x="280" y="900" width="80" height="80" as="geometry" />
        </mxCell>
        <mxCell id="VQO5LwTm_g0xGCJBr3M8-70" value="" style="shape=curlyBracket;whiteSpace=wrap;html=1;rounded=1;labelPosition=left;verticalLabelPosition=middle;align=right;verticalAlign=middle;" vertex="1" parent="1">
          <mxGeometry x="40" y="90" width="20" height="760" as="geometry" />
        </mxCell>
        <mxCell id="VQO5LwTm_g0xGCJBr3M8-71" value="程序调用阶段" style="text;strokeColor=none;fillColor=none;html=1;fontSize=24;fontStyle=1;verticalAlign=middle;align=center;" vertex="1" parent="1">
          <mxGeometry x="90" y="50" width="100" height="40" as="geometry" />
        </mxCell>
        <mxCell id="VQO5LwTm_g0xGCJBr3M8-72" value="for 循环多个维度" style="text;html=1;strokeColor=none;fillColor=none;align=center;verticalAlign=middle;whiteSpace=wrap;rounded=0;" vertex="1" parent="1">
          <mxGeometry x="80" y="110" width="120" height="30" as="geometry" />
        </mxCell>
      </root>
    </mxGraphModel>
  </diagram>
</mxfile>
